<svg width="336" height="336" xmlns="http://www.w3.org/2000/svg" xmlns:xlink="http://www.w3.org/1999/xlink" xml:space="preserve" overflow="hidden"><g transform="translate(-82 -24)"><path d="M82.3775 341.048C82.3775 343.2 82.8306 345.616 83.6989 347.919 84.6805 350.222 86.1151 352.412 87.8517 354.148 89.7016 355.998 91.8912 357.433 94.1942 358.301 96.4971 359.283 98.9133 359.622 101.103 359.622L399.048 359.622C401.351 359.622 403.654 359.283 405.919 358.301 408.222 357.433 410.412 355.998 412.262 354.148 414.149 352.412 415.433 350.222 416.414 347.919 417.32 345.616 417.736 343.2 417.736 341.048L417.736 42.9519C417.736 40.7622 417.32 38.4971 416.414 36.1942 415.433 33.778 414.149 31.7016 412.262 29.8517 410.412 28.0018 408.222 26.5672 405.919 25.6989 403.654 24.8306 401.351 24.3775 399.048 24.3775L101.103 24.3775C98.9133 24.3775 96.4971 24.8306 94.1942 25.6989 91.8912 26.5672 89.7016 28.0018 87.8517 29.8517 86.1151 31.7016 84.6805 33.778 83.6989 36.1942 82.8306 38.4971 82.3775 40.7622 82.3775 42.9519L82.3775 341.048Z" fill="#FFFFFF"/><path d="M82.3775 341.01C82.3775 345.918 84.3784 350.637 87.8894 354.148 91.4005 357.659 96.1951 359.622 101.141 359.622" stroke="#343434" stroke-width="0.755056" stroke-linejoin="round" fill="none"/><path d="M101.103 359.585 399.01 359.585" stroke="#343434" stroke-width="0.755056" stroke-linejoin="round" fill="none"/><path d="M399.01 359.622C404.031 359.622 408.788 357.659 412.262 354.148 415.773 350.637 417.736 345.918 417.736 341.01" stroke="#343434" stroke-width="0.755056" stroke-linejoin="round" fill="none"/><path d="M417.698 341.01 417.698 42.9519" stroke="#343434" stroke-width="0.755056" stroke-linejoin="round" fill="none"/><path d="M417.736 42.9897C417.736 38.0818 415.773 33.3627 412.262 29.8517 408.788 26.3407 404.031 24.3775 399.01 24.3775" stroke="#343434" stroke-width="0.755056" stroke-linejoin="round" fill="none"/><path d="M399.01 24.3775 101.103 24.3775" stroke="#343434" stroke-width="0.755056" stroke-linejoin="round" fill="none"/><path d="M101.141 24.3775C96.1951 24.3775 91.4005 26.3407 87.8894 29.8517 84.3784 33.3627 82.3775 38.0818 82.3775 42.9897" stroke="#343434" stroke-width="0.755056" stroke-linejoin="round" fill="none"/><path d="M82.3775 42.9519 82.3775 341.01" stroke="#343434" stroke-width="0.755056" stroke-linejoin="round" fill="none"/><path d="M90.6076 341.048C90.6076 342.218 90.7964 343.54 91.3627 344.861 91.8912 346.182 92.684 347.391 93.6656 348.372 94.7605 349.467 95.9685 350.222 97.2521 350.751 98.4602 351.204 99.7816 351.43 101.103 351.43L399.048 351.43C400.369 351.43 401.691 351.204 402.974 350.751 404.182 350.222 405.504 349.467 406.485 348.372 407.467 347.391 408.222 346.182 408.788 344.861 409.317 343.54 409.543 342.218 409.543 341.048L409.543 42.9519C409.543 41.7438 409.317 40.4602 408.788 39.1389 408.222 37.8175 407.467 36.6094 406.485 35.6279 405.504 34.533 404.182 33.778 402.974 33.3249 401.691 32.7964 400.369 32.5699 399.048 32.5699L101.103 32.5699C99.7816 32.5699 98.4602 32.7964 97.2521 33.3249 95.9685 33.778 94.7605 34.533 93.6656 35.6279 92.684 36.6094 91.8912 37.8175 91.3627 39.1389 90.7964 40.4602 90.6076 41.7438 90.6076 42.9519L90.6076 341.048Z" fill="#0055FF"/><path d="M267.178 229.828C277.673 229.828 288.055 227.752 297.757 223.712 307.384 219.786 316.294 213.897 323.731 206.459 331.169 198.984 336.945 190.112 340.984 180.485 345.024 170.783 347.1 160.401 347.1 149.906 347.1 145.187 346.685 140.279 345.817 135.333 344.835 130.425 343.4 125.404 341.437 120.496 339.587 115.551 337.058 110.756 334.113 106.15 331.055 101.582 327.544 97.3159 323.731 93.3519 319.805 89.5389 315.539 86.0279 310.933 82.9699 306.289 80.0252 301.495 77.4957 296.587 75.6458 291.641 73.6827 286.62 72.2481 281.712 71.2665 276.767 70.3982 271.859 69.9829 267.178 69.9829L156.939 69.9829 156.939 312.167 215.116 312.167 215.116 229.828 267.178 229.828ZM257.437 118.382C265.856 118.382 273.822 121.78 279.749 127.707 285.639 133.596 288.923 141.562 288.923 149.906 288.923 158.211 285.639 166.29 279.749 172.18 273.822 178.107 265.856 181.391 257.437 181.391L215.116 181.391 215.116 118.382 257.437 118.382Z" fill="#FEFEFE"/></g></svg>