<svg width="336" height="336" xmlns="http://www.w3.org/2000/svg" xmlns:xlink="http://www.w3.org/1999/xlink" xml:space="preserve" overflow="hidden"><g transform="translate(-637 -182)"><path d="M972.736 350C972.736 328.028 968.356 306.282 959.938 285.933 951.519 265.585 939.173 247.086 923.657 231.456 908.027 215.94 889.491 203.557 869.18 195.138 848.831 186.719 827.085 182.378 805.113 182.378 783.028 182.378 761.282 186.719 740.933 195.138 720.585 203.557 702.124 215.94 686.494 231.456 670.978 247.086 658.595 265.585 650.176 285.933 641.757 306.282 637.378 328.028 637.378 350 637.378 372.085 641.757 393.831 650.176 414.18 658.595 434.529 670.978 452.99 686.494 468.619 702.124 484.136 720.585 496.519 740.933 504.938 761.282 513.356 783.028 517.698 805.113 517.698 827.085 517.698 848.831 513.356 869.18 504.938 889.491 496.519 908.027 484.136 923.657 468.619 939.173 452.99 951.519 434.529 959.938 414.18 968.356 393.831 972.736 372.085 972.736 350Z" fill="#FFFFFF"/><path d="M972.736 350C972.736 327.99 968.356 306.245 959.938 285.896 951.519 265.547 939.173 247.086 923.657 231.456 908.027 215.94 889.529 203.557 869.218 195.138 848.869 186.719 827.123 182.378 805.113 182.378" stroke="#010101" stroke-width="0.755056" stroke-linejoin="round" fill="none"/><path d="M805.151 182.378C783.066 182.378 761.32 186.719 740.971 195.138 720.622 203.557 702.161 215.94 686.532 231.456 671.015 247.086 658.632 265.547 650.214 285.896 641.757 306.245 637.378 327.99 637.378 350" stroke="#010101" stroke-width="0.755056" stroke-linejoin="round" fill="none"/><path d="M637.378 349.962C637.378 372.048 641.757 393.793 650.214 414.142 658.632 434.491 671.015 452.952 686.532 468.582 702.161 484.098 720.622 496.481 740.971 504.938 761.32 513.356 783.066 517.698 805.151 517.698" stroke="#010101" stroke-width="0.755056" stroke-linejoin="round" fill="none"/><path d="M805.113 517.698C827.123 517.698 848.869 513.356 869.218 504.938 889.529 496.481 908.027 484.098 923.657 468.582 939.173 452.952 951.519 434.491 959.938 414.142 968.356 393.793 972.736 372.048 972.736 349.962" stroke="#010101" stroke-width="0.755056" stroke-linejoin="round" fill="none"/><path d="M964.543 350C964.543 329.123 960.391 308.359 952.425 288.991 944.421 269.662 932.604 252.145 917.843 237.27 903.006 222.471 885.489 210.692 866.122 202.689 846.755 194.723 825.991 190.57 805.113 190.57 784.123 190.57 763.359 194.723 744.105 202.689 724.738 210.692 707.145 222.471 692.27 237.27 677.509 252.145 665.805 269.662 657.726 288.991 649.76 308.359 645.608 329.123 645.608 350 645.608 370.991 649.76 391.641 657.726 411.009 665.805 430.376 677.509 447.969 692.27 462.843 707.145 477.604 724.738 489.27 744.105 497.387 763.359 505.353 784.123 509.506 805.113 509.506 825.991 509.506 846.755 505.353 866.122 497.387 885.489 489.27 903.006 477.604 917.843 462.843 932.604 447.969 944.421 430.376 952.425 411.009 960.391 391.641 964.543 370.991 964.543 350Z" fill="#0055FF"/><path d="M774.609 288.01 768.908 279.931C772.419 278.081 776.232 276.533 780.196 275.212 784.274 273.928 788.427 273.022 792.693 272.38 801.3 271.172 810.285 271.399 819.12 273.249 827.991 275.098 836.184 278.609 843.621 283.215 847.359 285.518 850.719 288.123 853.89 290.841 856.948 293.711 859.817 296.655 862.309 299.713L886.169 279.062C882.431 274.57 878.391 270.304 873.786 266.378 869.218 262.413 864.272 258.714 858.836 255.429 853.475 252.22 847.661 249.389 841.658 247.086 835.655 244.783 829.426 243.046 822.97 241.838 816.628 240.63 810.172 240.102 803.716 240.102 797.147 240.102 790.805 240.63 784.689 241.725 778.422 242.82 772.419 244.481 766.719 246.557 761.056 248.634 755.695 251.125 750.787 253.957L743.991 244.368C743.538 243.801 742.783 243.462 742.142 243.575 741.802 243.575 741.462 243.801 741.16 244.028 740.933 244.254 740.707 244.556 740.594 244.896L729.117 288.236C729.004 288.652 729.117 289.331 729.457 289.747 729.683 290.086 729.872 290.2 730.212 290.313 730.438 290.539 730.778 290.539 730.967 290.539L773.061 290.955C773.741 290.955 774.382 290.653 774.722 289.973 775.024 289.331 774.949 288.652 774.609 288.01Z" fill="#FEFEFE"/><path d="M745.577 457.898 788.653 446.232C788.955 446.119 789.182 446.005 789.408 445.892 789.635 445.666 789.823 445.439 789.937 445.137 790.05 444.911 790.05 444.571 790.05 444.231 790.05 444.042 789.937 443.702 789.823 443.476L769.173 406.856C768.833 406.214 768.191 405.874 767.549 405.874 767.209 405.874 766.756 405.987 766.568 406.214 766.228 406.403 766.001 406.629 765.888 406.969L761.622 416.03C758.338 413.84 755.053 411.348 751.995 408.479 748.824 405.761 745.879 402.59 743.274 399.192 737.913 392.321 733.647 384.393 730.816 375.785 728.06 367.253 726.852 358.268 727.191 349.547 727.305 345.281 727.833 341.015 728.739 336.862 729.608 332.785 730.702 328.858 732.099 325.159L702.237 314.89C700.274 320.213 698.613 325.914 697.404 331.916 696.31 337.844 695.555 343.96 695.441 350.302 695.328 356.531 695.781 362.987 696.876 369.329 697.858 375.672 699.481 382.014 701.671 388.13 703.86 394.284 706.616 400.173 709.787 405.761 713.034 411.348 716.658 416.596 720.698 421.391 724.889 426.223 729.268 430.564 733.874 434.529 738.555 438.342 743.387 441.739 748.295 444.684L743.387 455.293C743.048 455.934 743.161 456.727 743.576 457.256 744.029 457.898 744.784 458.124 745.577 457.898Z" fill="#FEFEFE"/><path d="M927.47 347.244 895.796 315.645C895.682 315.532 895.456 315.305 895.116 315.192 894.889 315.079 894.587 315.079 894.248 315.079 893.908 315.192 893.681 315.305 893.379 315.418 893.153 315.645 893.04 315.871 892.926 316.06L871.483 352.265C871.03 352.794 871.143 353.586 871.483 354.228 871.671 354.455 871.898 354.681 872.238 354.87 872.578 354.983 872.88 355.097 873.219 355.097L883.111 354.228C882.997 358.155 882.431 362.194 881.563 366.347 880.581 370.424 879.335 374.577 877.712 378.503 874.427 386.733 869.708 394.284 863.706 401.042 857.703 407.724 850.605 413.198 842.828 417.351 839.015 419.314 835.051 420.975 831.125 422.259 827.085 423.58 823.159 424.562 819.195 425.204L825.235 456.161C830.898 455.293 836.712 453.858 842.375 451.895 848.076 449.932 853.739 447.402 859.326 444.344 864.8 441.286 870.048 437.7 875.069 433.622 880.128 429.583 884.847 425.015 889 420.069 893.266 415.161 896.966 409.8 900.25 404.213 903.422 398.663 906.177 392.849 908.254 386.96 910.444 380.92 911.954 374.992 913.049 368.99 914.03 363.1 914.596 357.173 914.596 351.397L926.375 350.415C927.055 350.302 927.697 349.849 927.923 349.207 928.15 348.452 928.036 347.659 927.47 347.244Z" fill="#FEFEFE"/></g></svg>