<svg width="336" height="336" xmlns="http://www.w3.org/2000/svg" xmlns:xlink="http://www.w3.org/1999/xlink" xml:space="preserve" overflow="hidden"><g transform="translate(-472 -192)"><path d="M807.358 359.622C807.358 337.537 802.979 315.791 794.56 295.443 786.141 275.132 773.796 256.595 758.28 241.079 742.65 225.449 724.113 213.104 703.802 204.685 683.453 196.266 661.708 192 639.736 192 617.65 192 595.905 196.266 575.556 204.685 555.207 213.104 536.746 225.449 521.116 241.079 505.6 256.595 493.217 275.132 484.798 295.443 476.379 315.791 472 337.537 472 359.622 472 381.595 476.379 403.378 484.798 423.689 493.217 444.038 505.6 462.499 521.116 478.129 536.746 493.683 555.207 506.028 575.556 514.447 595.905 522.866 617.65 527.245 639.736 527.245 661.708 527.245 683.453 522.866 703.802 514.447 724.113 506.028 742.65 493.683 758.28 478.129 773.796 462.499 786.141 444.038 794.56 423.689 802.979 403.378 807.358 381.595 807.358 359.622Z" fill="#FF0000"/><path d="M762.659 359.585C762.659 343.427 759.488 327.457 753.258 312.469 747.142 297.595 738.044 284.041 726.68 272.678 715.204 261.201 701.65 252.14 686.776 245.987 671.788 239.757 655.856 236.586 639.773 236.586 623.578 236.586 607.608 239.757 592.62 245.987 577.746 252.14 564.192 261.201 552.829 272.678 541.314 284.041 532.253 297.595 526.138 312.469 519.908 327.457 516.737 343.427 516.737 359.585 516.737 375.667 519.908 391.788 526.138 406.625 532.253 421.499 541.314 435.053 552.829 446.529 564.192 457.931 577.746 466.991 592.62 473.107 607.608 479.337 623.578 482.508 639.773 482.508 655.856 482.508 671.788 479.337 686.776 473.107 701.65 466.991 715.204 457.931 726.68 446.529 738.044 435.053 747.142 421.499 753.258 406.625 759.488 391.788 762.659 375.667 762.659 359.585Z" fill="#FFFFFF"/><path d="M543.881 409.909 567.515 409.909 567.515 309.298 546.411 309.298 546.411 313.338C546.411 316.093 545.316 318.812 543.353 320.813 541.352 322.776 538.634 323.871 535.802 323.871L526.779 323.871 526.779 343.993 543.881 343.993 543.881 409.909Z" fill="#010101"/><path d="M578.954 381.293C581.445 390.127 586.693 397.904 593.904 403.378 601.228 408.928 610.1 411.872 619.198 411.872 628.41 411.872 637.244 408.928 644.455 403.378 651.779 397.904 657.026 390.127 659.443 381.293 663.369 367.06 663.369 351.959 659.443 337.726 657.026 328.967 651.779 321.228 644.455 315.64 637.244 310.166 628.41 307.108 619.198 307.108 610.1 307.108 601.228 310.166 593.904 315.64 586.693 321.228 581.445 328.967 578.954 337.726 574.99 351.959 574.99 367.06 578.954 381.293ZM600.813 373.742C599.265 364.342 599.265 354.828 600.813 345.427 601.568 341.01 603.757 337.084 607.155 334.215 610.553 331.383 614.857 329.873 619.198 329.873 623.691 329.873 627.957 331.383 631.241 334.215 634.639 337.084 636.942 341.01 637.697 345.427 639.207 354.828 639.207 364.342 637.697 373.742 636.942 378.008 634.639 382.048 631.241 384.879 627.957 387.711 623.691 389.258 619.198 389.258 614.857 389.258 610.553 387.711 607.155 384.879 603.757 382.048 601.568 378.008 600.813 373.742Z" fill="#010101"/><path d="M671.373 381.293C673.864 390.127 679.112 397.904 686.323 403.378 693.571 408.928 702.556 411.872 711.617 411.872 720.829 411.872 729.663 408.928 736.874 403.378 744.198 397.904 749.445 390.127 751.862 381.293 755.788 367.06 755.788 351.959 751.862 337.726 749.445 328.967 744.198 321.228 736.874 315.64 729.663 310.166 720.829 307.108 711.617 307.108 702.556 307.108 693.571 310.166 686.323 315.64 679.112 321.228 673.864 328.967 671.373 337.726 667.409 351.959 667.409 367.06 671.373 381.293ZM693.231 373.742C691.684 364.342 691.684 354.828 693.231 345.427 693.873 341.01 696.176 337.084 699.574 334.215 703.009 331.383 707.276 329.873 711.617 329.873 716.11 329.873 720.376 331.383 723.66 334.215 727.058 337.084 729.361 341.01 730.116 345.427 731.626 354.828 731.626 364.342 730.116 373.742 729.361 378.008 727.058 382.048 723.66 384.879 720.376 387.711 716.11 389.258 711.617 389.258 707.276 389.258 703.009 387.711 699.574 384.879 696.176 382.048 693.873 378.008 693.231 373.742Z" fill="#010101"/></g></svg>